<svg width="24" height="22" viewBox="0 0 24 22" fill="none" xmlns="http://www.w3.org/2000/svg">
<path d="M10.5644 9.58271L3.79208 0.746342C3.35516 0.309979 2.809 0.0917969 2.26285 0.0917969C1.71669 0.0917969 1.17054 0.309979 0.733617 0.746342C-0.0309973 1.61907 -0.0309973 2.92816 0.733617 3.80089L6.08592 11.0009L0.733617 18.2009C-0.0309973 19.0736 -0.0309973 20.3827 0.733617 21.2554C1.17054 21.6918 1.71669 21.91 2.26285 21.91C2.809 21.91 3.35516 21.6918 3.79208 21.2554L10.5644 12.4191C11.329 11.7645 11.329 10.4554 10.5644 9.58271Z" fill="#FF5A30"/>
<path d="M13.4511 9.58271L20.2234 0.746342C20.6603 0.309979 21.2065 0.0917969 21.7527 0.0917969C22.2988 0.0917969 22.845 0.309979 23.2819 0.746342C24.0465 1.61907 24.0465 2.92816 23.2819 3.80089L17.9296 11.0009L23.2819 18.2009C24.0465 19.0736 24.0465 20.3827 23.2819 21.2554C22.845 21.6918 22.2988 21.91 21.7527 21.91C21.2065 21.91 20.6603 21.6918 20.2234 21.2554L13.4511 12.4191C12.6865 11.7645 12.6865 10.4554 13.4511 9.58271Z" fill="#FF5A30"/>
</svg>
